<svg xmlns="http://www.w3.org/2000/svg" xmlns:xlink="http://www.w3.org/1999/xlink" viewBox="0 0 48 48"><radialGradient id="Oz3BTbSvwCIgvEMCzZLeia" cx="24" cy="24" r="18" fx="23.905" fy="16.289" gradientUnits="userSpaceOnUse"><stop offset="0" stop-color="#ffe16e"/><stop offset=".629" stop-color="#ffd226"/><stop offset=".75" stop-color="#fdcd23"/><stop offset=".899" stop-color="#f6bd1b"/><stop offset=".999" stop-color="#f0af13"/></radialGradient><circle cx="24" cy="24" r="18" fill="url(#Oz3BTbSvwCIgvEMCzZLeia)"/><radialGradient id="Oz3BTbSvwCIgvEMCzZLeib" cx="36.969" cy="21.335" r="5.456" fx="36.965" fy="21.539" gradientTransform="matrix(1.8316 -.5643 .3057 .9922 -49.842 22.956)" gradientUnits="userSpaceOnUse"><stop offset=".947" stop-color="#ffe16e"/><stop offset="1" stop-color="#ffe16e" stop-opacity="0"/></radialGradient><path fill="url(#Oz3BTbSvwCIgvEMCzZLeib)" d="M32.553,20.411c0,0-0.436,5.366-6.787,7.323c-5.883,1.812-9.726-2.235-9.726-2.235s2.234,1.724,9.012-0.364S32.553,20.411,32.553,20.411z"/><radialGradient id="Oz3BTbSvwCIgvEMCzZLeic" cx="-9.87" cy="15.182" r="8.479" gradientTransform="matrix(1.044 -.3216 .3288 1.0674 28.967 1.15)" gradientUnits="userSpaceOnUse"><stop offset=".819" stop-color="#cc9000"/><stop offset=".988" stop-color="#fbbc23" stop-opacity=".069"/><stop offset="1" stop-color="#ffbf26" stop-opacity="0"/></radialGradient><path fill="url(#Oz3BTbSvwCIgvEMCzZLeic)" d="M25.767,27.734c-6.513,2.007-10.531-2.845-10.531-2.845s3.401,7.134,11.12,4.756s6.515-10.189,6.515-10.189S32.28,25.727,25.767,27.734z"/><radialGradient id="Oz3BTbSvwCIgvEMCzZLeid" cx="24.589" cy="22.931" r="9.652" gradientTransform="matrix(.9557 -.2944 .1105 .3587 -1.785 21.818)" gradientUnits="userSpaceOnUse"><stop offset="0" stop-color="#1c1911"/><stop offset=".999" stop-color="#171714"/></radialGradient><path fill="url(#Oz3BTbSvwCIgvEMCzZLeid)" d="M31.944,19.331c0.323-0.497,1.092-0.111,0.887,0.445c-0.934,2.546-2.961,5.647-7.359,7.002c-4.399,1.355-7.819-0.067-10.024-1.647c-0.482-0.345-0.064-1.096,0.483-0.867c2.257,0.944,5.458,1.679,8.952,0.603C28.377,23.791,30.61,21.382,31.944,19.331z"/><circle cx="32.121" cy="12.697" r=".5" fill="#212121"/><path fill="#212121" d="M25.792,15.106c0,0,1.371-1.411,2.835-1.862c1.464-0.451,3.391-0.057,3.391-0.057l0.381-0.907 c0,0-2.33-1.569-4.36-0.943c-2.03,0.625-3.073,3.233-3.073,3.233L25.792,15.106z"/><circle cx="25.431" cy="14.758" r=".5" fill="#212121"/><circle cx="18.741" cy="16.819" r=".5" fill="#212121"/><path fill="#212121" d="M12.412,19.228c0,0,1.371-1.411,2.835-1.862s3.391-0.057,3.391-0.057l0.381-0.907 c0,0-2.33-1.569-4.36-0.943s-3.073,3.233-3.073,3.233L12.412,19.228z"/><circle cx="12.052" cy="18.88" r=".5" fill="#212121"/><radialGradient id="Oz3BTbSvwCIgvEMCzZLeie" cx="35" cy="18" r="5" gradientUnits="userSpaceOnUse"><stop offset="0" stop-color="#ff8400" stop-opacity=".6"/><stop offset=".999" stop-color="#ff8400" stop-opacity="0"/></radialGradient><circle cx="35" cy="18" r="5" fill="url(#Oz3BTbSvwCIgvEMCzZLeie)"/><radialGradient id="Oz3BTbSvwCIgvEMCzZLeif" cx="12" cy="26" r="5" gradientUnits="userSpaceOnUse"><stop offset="0" stop-color="#ff8400" stop-opacity=".6"/><stop offset=".999" stop-color="#ff8400" stop-opacity="0"/></radialGradient><circle cx="12" cy="26" r="5" fill="url(#Oz3BTbSvwCIgvEMCzZLeif)"/><g><path fill="#fff" d="M31.01,44.5c-0.438,0-1.773,0-1.98-1.178c-0.069-0.395,0.015-0.752,0.244-1.034 c0.139-0.17,0.377-0.365,0.778-0.473c-0.556-0.041-1.021-0.078-1.261-0.113c-1.533-0.226-1.638-1.234-1.611-1.658 c0.075-1.178,1.364-1.252,1.972-1.258c-0.324-0.064-0.644-0.134-0.951-0.21c-0.93-0.232-1.853-0.931-1.679-1.917 c0.074-0.428,0.399-1.146,1.732-1.146c0.175,0,0.362,0.012,0.562,0.034c0.186,0.021,0.396,0.051,0.621,0.085 c-0.192-0.092-0.386-0.193-0.579-0.303c-0.721-0.41-1.55-1.37-1.136-2.222c0.163-0.336,0.515-0.737,1.262-0.737 c0.315,0,0.678,0.068,1.174,0.222c0.08,0.024,0.219,0.071,0.403,0.134c0.958,0.325,3.201,1.085,4.919,1.3 c0.509,0.063,1.315,0.103,1.936,0.125l-0.794-1.398c-0.847-1.408-0.387-3.256,1.031-4.109c0.156-0.094,0.334-0.143,0.516-0.143 c0.35,0,0.678,0.186,0.858,0.485l1.169,2.805c0.35,0.396,2.14,2.452,2.876,3.952c0.051,0.102,0.075,0.194,0.093,0.262 c0.21,0.383,0.335,0.88,0.335,1.384v1.861c0,2.796-2.275,5.072-5.071,5.072h-2.854c-1.126,0-4.003,0.158-4.032,0.16 C31.354,44.493,31.175,44.5,31.01,44.5z"/><path fill="#1c1911" d="M38.169,29c0.17,0,0.335,0.086,0.429,0.243l1.169,2.817c0,0,2.077,2.315,2.857,3.903 c0.03,0.061,0.045,0.12,0.06,0.179C42.879,36.516,43,36.936,43,37.387v1.861c0,2.525-2.047,4.572-4.572,4.572c0,0-1.702,0-2.854,0 c-1.152,0-4.059,0.161-4.059,0.161C31.332,43.994,31.164,44,31.009,44c-0.991,0-1.4-0.266-1.488-0.765 c-0.101-0.577,0.29-0.974,1.122-0.999c0.755-0.023,3.214-0.036,3.214-0.395s-4.099-0.501-4.993-0.633 c-0.815-0.12-1.224-0.506-1.184-1.132c0.039-0.612,0.617-0.786,1.579-0.79c0.002,0,0.004,0,0.007,0c0.506,0,2.376,0.18,3.567,0.18 c0.597,0,1.025-0.045,1.025-0.181c0-0.409-3.193-0.611-5.536-1.194c-0.653-0.163-1.429-0.651-1.308-1.345 c0.091-0.52,0.542-0.732,1.239-0.732c0.157,0,0.327,0.011,0.508,0.031c1.187,0.134,3.411,0.62,4.369,0.62 c0.271,0,0.441-0.039,0.457-0.136c0.058-0.349-2.282-0.383-4.481-1.634c-0.499-0.284-1.207-1.006-0.934-1.568 c0.162-0.334,0.449-0.456,0.812-0.456c0.299,0,0.65,0.083,1.027,0.199c0.5,0.154,3.314,1.191,5.407,1.453 c0.954,0.119,2.871,0.153,2.871,0.153l-1.232-2.17c-0.712-1.184-0.33-2.722,0.855-3.434C37.992,29.023,38.081,29,38.169,29 M38.169,28c-0.272,0-0.539,0.074-0.773,0.215c-1.655,0.995-2.191,3.151-1.196,4.806l0.335,0.59 c-0.368-0.021-0.724-0.047-0.993-0.081c-1.666-0.208-3.875-0.957-4.818-1.277c-0.192-0.065-0.335-0.113-0.419-0.139 c-0.546-0.168-0.954-0.243-1.321-0.243c-1.058,0-1.526,0.638-1.711,1.018c-0.359,0.738-0.085,1.539,0.459,2.16 c-1.319,0.191-1.63,1.105-1.704,1.524c-0.176,1.005,0.459,1.771,1.285,2.2c-0.387,0.287-0.599,0.701-0.633,1.24 c-0.057,0.903,0.448,1.951,2.037,2.185c0.004,0.001,0.008,0.001,0.012,0.002c-0.202,0.353-0.27,0.773-0.194,1.209 C28.664,44.134,29.197,45,31.009,45c0.176,0,0.368-0.007,0.577-0.022c0.013-0.001,2.878-0.158,3.989-0.158h2.854 c3.072,0,5.572-2.5,5.572-5.572v-1.861c0-0.55-0.127-1.09-0.378-1.606c-0.022-0.073-0.053-0.163-0.101-0.259 c-0.73-1.487-2.432-3.472-2.895-4l-1.105-2.663l-0.028-0.069l-0.038-0.064C39.185,28.279,38.693,28,38.169,28L38.169,28z"/></g><g><path fill="#fff" d="M18.991,44.5c-0.165,0-0.345-0.007-0.541-0.021c-0.021-0.001-2.899-0.159-4.024-0.159h-2.854 c-2.796,0-5.071-2.275-5.071-5.072v-1.861c0-0.486,0.116-0.965,0.346-1.424c0.019-0.065,0.042-0.139,0.079-0.217 c0.739-1.503,2.528-3.559,2.879-3.956l1.136-2.739c0.214-0.365,0.542-0.551,0.892-0.551c0.182,0,0.359,0.049,0.516,0.143 c1.418,0.854,1.878,2.701,1.025,4.12l-0.788,1.388c0.62-0.022,1.427-0.061,1.937-0.125c1.717-0.215,3.96-0.975,4.918-1.3 c0.185-0.062,0.323-0.109,0.403-0.134c0.496-0.153,0.858-0.222,1.174-0.222c0.747,0,1.099,0.401,1.262,0.737 c0.414,0.852-0.415,1.812-1.136,2.222c-0.193,0.11-0.387,0.211-0.579,0.303c0.226-0.034,0.436-0.063,0.62-0.084 c0.201-0.023,0.39-0.035,0.563-0.035c1.333,0,1.658,0.718,1.732,1.146c0.174,0.986-0.749,1.685-1.679,1.917 c-0.308,0.076-0.627,0.146-0.951,0.21c0.616,0.007,1.896,0.084,1.972,1.258c0.026,0.424-0.078,1.433-1.61,1.658 c-0.24,0.035-0.705,0.072-1.261,0.113c0.4,0.107,0.639,0.303,0.777,0.472c0.229,0.282,0.313,0.639,0.244,1.034 C20.765,44.5,19.43,44.5,18.991,44.5z"/><path fill="#1c1911" d="M11.832,29c0.088,0,0.177,0.023,0.257,0.072c1.184,0.712,1.567,2.25,0.855,3.434l-1.232,2.17 c0,0,1.917-0.034,2.871-0.153c2.094-0.262,4.907-1.298,5.407-1.453c0.377-0.116,0.728-0.199,1.027-0.199 c0.363,0,0.65,0.122,0.812,0.456c0.274,0.562-0.434,1.285-0.934,1.568c-2.199,1.251-4.539,1.285-4.481,1.634 c0.016,0.097,0.186,0.136,0.457,0.136c0.958,0,3.181-0.485,4.369-0.62c0.181-0.02,0.35-0.031,0.508-0.031 c0.697,0,1.148,0.212,1.239,0.732c0.122,0.694-0.655,1.182-1.308,1.345c-2.342,0.584-5.536,0.786-5.536,1.194 c0,0.136,0.427,0.181,1.025,0.181c1.192,0,3.061-0.18,3.567-0.18c0.002,0,0.005,0,0.007,0c0.962,0.003,1.54,0.178,1.579,0.79 c0.04,0.626-0.369,1.012-1.184,1.132c-0.895,0.132-4.993,0.274-4.993,0.633s2.459,0.372,3.214,0.395 c0.832,0.025,1.223,0.422,1.122,0.999C20.392,43.734,19.983,44,18.992,44c-0.154,0-0.323-0.006-0.506-0.019 c0,0-2.908-0.161-4.059-0.161c-1.152,0-2.854,0-2.854,0c-2.525,0-4.572-2.047-4.572-4.572v-1.861c0-0.452,0.121-0.871,0.316-1.245 c0.015-0.059,0.03-0.118,0.06-0.179c0.78-1.587,2.857-3.903,2.857-3.903l1.169-2.817C11.497,29.086,11.662,29,11.832,29 M11.832,28 L11.832,28c-0.524,0-1.017,0.279-1.286,0.727l-0.038,0.064l-0.028,0.069l-1.105,2.663C8.911,32.05,7.21,34.035,6.48,35.522 c-0.047,0.097-0.079,0.186-0.101,0.26c-0.251,0.516-0.378,1.055-0.378,1.606v1.861c0,3.072,2.499,5.572,5.572,5.572h2.854 c1.111,0,3.975,0.158,4.004,0.159C18.624,44.993,18.816,45,18.992,45c1.813,0,2.345-0.866,2.473-1.592 c0.077-0.436,0.008-0.856-0.194-1.209c0.004-0.001,0.008-0.001,0.012-0.002c1.589-0.234,2.094-1.282,2.037-2.185 c-0.034-0.539-0.246-0.953-0.632-1.24c0.827-0.429,1.461-1.194,1.285-2.199c-0.073-0.419-0.385-1.332-1.704-1.524 c0.544-0.621,0.819-1.422,0.459-2.16c-0.185-0.38-0.654-1.018-1.711-1.018c-0.368,0-0.775,0.075-1.321,0.243 c-0.083,0.026-0.227,0.074-0.419,0.139c-0.943,0.32-3.152,1.069-4.818,1.277c-0.269,0.034-0.625,0.06-0.992,0.081l0.347-0.612 c0.983-1.633,0.446-3.789-1.209-4.784C12.371,28.074,12.104,28,11.832,28L11.832,28z"/></g></svg>