<svg xmlns="http://www.w3.org/2000/svg" xmlns:xlink="http://www.w3.org/1999/xlink" viewBox="0 0 50 50" fill="#979797">
  <path d="M7 4C4.253906 4 2 6.253906 2 9L2 33C2 35.746094 4.253906 38 7 38L11.09375 38C11.230469 39.203125 11.214844 40.316406 10.90625 41.25C10.527344 42.398438 9.820313 43.363281 8.5 44.15625C8.128906 44.390625 7.957031 44.839844 8.070313 45.261719C8.183594 45.683594 8.5625 45.984375 9 46C13.242188 46 18.105469 43.785156 20.5625 38L43 38C45.746094 38 48 35.746094 48 33L48 9C48 6.253906 45.746094 4 43 4 Z M 7 6L43 6C44.65625 6 46 7.34375 46 9L46 33C46 34.65625 44.65625 36 43 36L20 36C19.582031 36 19.207031 36.261719 19.0625 36.65625C17.507813 40.898438 14.730469 42.917969 11.84375 43.65625C12.234375 43.097656 12.605469 42.507813 12.8125 41.875C13.332031 40.296875 13.289063 38.570313 12.96875 36.8125C12.878906 36.347656 12.476563 36.007813 12 36L7 36C5.34375 36 4 34.65625 4 33L4 9C4 7.34375 5.34375 6 7 6Z" fill="#979797" />
</svg>