<svg xmlns="http://www.w3.org/2000/svg" xmlns:xlink="http://www.w3.org/1999/xlink" viewBox="0 0 24 24" fill="#15416B">
  <path d="M3.984375 2.9863281 A 1.0001 1.0001 0 0 0 3 4L3 14L3 20 A 1.0001 1.0001 0 1 0 5 20L5 14L11.763672 14C12.142672 14 12.488203 14.213734 12.658203 14.552734L13.105469 15.447266C13.274469 15.786266 13.621 16 14 16L20 16C20.552 16 21 15.552 21 15L21 6C21 5.448 20.552 5 20 5L15.236328 5C14.857328 5 14.511797 4.7862656 14.341797 4.4472656L13.894531 3.5527344C13.725531 3.2137344 13.379 3 13 3L4.1542969 3 A 1.0001 1.0001 0 0 0 3.984375 2.9863281 z" fill="#15416B" />
</svg>