<svg xmlns="http://www.w3.org/2000/svg" xmlns:xlink="http://www.w3.org/1999/xlink" viewBox="0 0 50 50"><path d="M25 7C22.792969 7 21 8.792969 21 11C21 13.207031 22.792969 15 25 15C27.207031 15 29 13.207031 29 11C29 8.792969 27.207031 7 25 7 Z M 3 10C2.449219 10 2 10.449219 2 11C2 11.550781 2.449219 12 3 12L19.089844 12C19.035156 11.675781 19 11.339844 19 11C19 10.660156 19.035156 10.324219 19.089844 10 Z M 30.910156 10C30.964844 10.324219 31 10.660156 31 11C31 11.339844 30.964844 11.675781 30.910156 12L47 12C47.554688 12 48 11.550781 48 11C48 10.449219 47.554688 10 47 10 Z M 39 21C36.792969 21 35 22.792969 35 25C35 27.207031 36.792969 29 39 29C41.207031 29 43 27.207031 43 25C43 22.792969 41.207031 21 39 21 Z M 3 24C2.449219 24 2 24.449219 2 25C2 25.550781 2.449219 26 3 26L33.089844 26C33.035156 25.675781 33 25.339844 33 25C33 24.660156 33.035156 24.324219 33.089844 24 Z M 44.910156 24C44.964844 24.324219 45 24.660156 45 25C45 25.339844 44.964844 25.675781 44.910156 26L47 26C47.554688 26 48 25.550781 48 25C48 24.449219 47.554688 24 47 24 Z M 14 35C11.792969 35 10 36.792969 10 39C10 41.207031 11.792969 43 14 43C16.207031 43 18 41.207031 18 39C18 36.792969 16.207031 35 14 35 Z M 3 38C2.449219 38 2 38.445313 2 39C2 39.554688 2.449219 40 3 40L8.089844 40C8.035156 39.675781 8 39.34375 8 39C8 38.65625 8.035156 38.324219 8.089844 38 Z M 19.910156 38C19.964844 38.324219 20 38.65625 20 39C20 39.34375 19.964844 39.675781 19.910156 40L47 40C47.554688 40 48 39.554688 48 39C48 38.445313 47.554688 38 47 38Z"/></svg>