<svg xmlns="http://www.w3.org/2000/svg" xmlns:xlink="http://www.w3.org/1999/xlink" viewBox="0 0 50 50" fill="#888686">
  <path d="M46.773438 35.078125C40.96875 34.121094 38.316406 28.109375 38.230469 27.914063C38.21875 27.878906 38.191406 27.816406 38.175781 27.78125C38 27.429688 37.824219 26.933594 37.972656 26.582031C38.226563 25.980469 39.433594 25.597656 40.15625 25.367188C40.410156 25.285156 40.652344 25.210938 40.839844 25.136719C42.59375 24.441406 43.46875 23.535156 43.449219 22.433594C43.433594 21.546875 42.753906 20.734375 41.753906 20.382813C41.40625 20.234375 41.007813 20.160156 40.605469 20.160156C40.332031 20.160156 39.917969 20.199219 39.519531 20.382813C38.851563 20.695313 38.265625 20.863281 37.847656 20.882813C37.757813 20.878906 37.679688 20.871094 37.613281 20.859375L37.65625 20.171875C37.851563 17.0625 38.097656 13.1875 37.046875 10.832031C33.945313 3.890625 27.375 3.351563 25.433594 3.351563L24.550781 3.359375C22.613281 3.359375 16.054688 3.898438 12.960938 10.835938C11.910156 13.191406 12.152344 17.0625 12.351563 20.175781L12.359375 20.292969C12.371094 20.484375 12.382813 20.675781 12.394531 20.859375C11.960938 20.9375 11.113281 20.792969 10.234375 20.382813C9.039063 19.824219 6.886719 20.5625 6.589844 22.125C6.457031 22.816406 6.617188 24.128906 9.164063 25.132813C9.355469 25.210938 9.59375 25.285156 9.851563 25.367188C10.570313 25.597656 11.777344 25.976563 12.03125 26.582031C12.179688 26.933594 12.003906 27.429688 11.796875 27.855469C11.6875 28.109375 9.050781 34.121094 3.234375 35.078125C2.492188 35.199219 1.964844 35.855469 2.003906 36.613281C2.015625 36.8125 2.066406 37.011719 2.148438 37.207031C2.675781 38.445313 4.59375 39.296875 8.171875 39.878906C8.234375 40.089844 8.304688 40.402344 8.34375 40.574219C8.417969 40.929688 8.5 41.289063 8.609375 41.664063C8.714844 42.019531 9.078125 42.84375 10.210938 42.84375C10.554688 42.84375 10.929688 42.769531 11.332031 42.691406C11.925781 42.574219 12.667969 42.429688 13.621094 42.429688C14.152344 42.429688 14.699219 42.476563 15.25 42.566406C16.265625 42.734375 17.183594 43.386719 18.25 44.136719C19.914063 45.316406 21.800781 46.648438 24.726563 46.648438C24.804688 46.648438 24.882813 46.644531 24.957031 46.640625C25.0625 46.644531 25.171875 46.648438 25.28125 46.648438C28.207031 46.648438 30.09375 45.3125 31.761719 44.136719C32.777344 43.414063 33.738281 42.738281 34.757813 42.566406C35.308594 42.476563 35.855469 42.429688 36.386719 42.429688C37.304688 42.429688 38.03125 42.546875 38.679688 42.675781C39.140625 42.765625 39.507813 42.808594 39.847656 42.808594C40.605469 42.808594 41.1875 42.375 41.398438 41.648438C41.507813 41.28125 41.585938 40.925781 41.664063 40.566406C41.695313 40.433594 41.769531 40.097656 41.835938 39.875C45.414063 39.292969 47.332031 38.441406 47.855469 37.214844C47.941406 37.019531 47.988281 36.816406 48.003906 36.605469C48.042969 35.859375 47.515625 35.203125 46.773438 35.078125Z" fill="#888686" />
</svg>