<svg xmlns="http://www.w3.org/2000/svg" xmlns:xlink="http://www.w3.org/1999/xlink" viewBox="0 0 24 24" fill="#F50404">
  <path d="M9 2L7 4L4 4C2.898438 4 2 4.898438 2 6L2 18C2 19.101563 2.898438 20 4 20L20 20C21.101563 20 22 19.101563 22 18L22 6C22 4.898438 21.101563 4 20 4L17 4L15 2 Z M 12 7C14.800781 7 17 9.199219 17 12C17 14.800781 14.800781 17 12 17C9.199219 17 7 14.800781 7 12C7 9.199219 9.199219 7 12 7 Z M 12 8.5C10.066406 8.5 8.5 10.066406 8.5 12C8.5 13.933594 10.066406 15.5 12 15.5C13.933594 15.5 15.5 13.933594 15.5 12C15.5 10.066406 13.933594 8.5 12 8.5Z" fill="#F50404" />
</svg>