<svg xmlns="http://www.w3.org/2000/svg" xmlns:xlink="http://www.w3.org/1999/xlink" viewBox="0 0 64 64" fill="#979797">
  <path d="M32.955078 2C31.440332 2 30.305504 2.7064851 29.71875 3.5800781C29.131996 4.4536711 29.007572 5.390121 29 6.0507812 A 1.0001 1.0001 0 0 0 29 6.0625L29 15.0625C29 16.265559 28.454064 18.542977 27.568359 20.740234C26.682655 22.937491 25.446951 25.111428 24.285156 26.300781C23.887321 26.707868 22.431475 27.633222 19.992188 27.919922C19.948147 26.31209 18.617607 25 17 25L5 25C3.3550302 25 2 26.35503 2 28L2 57C2 58.644459 3.3544268 60 5 60L17 60C18.64497 60 20 58.64497 20 57L20 56.470703C20.354741 56.77916 20.729716 57.084913 21.154297 57.373047C25.127834 60.069687 30.022384 60 32 60L47 60C49.898253 60 52.148751 59.547979 53.822266 58.662109C55.49578 57.77624 56.573206 56.38591 56.896484 54.779297C56.981164 54.357828 56.887184 53.169139 56.361328 51.78125C58.334993 51.311811 59.997429 49.917639 60.673828 47.949219C61.3382 46.015813 60.923768 43.930247 59.712891 42.357422C61.672675 41.313752 63 39.300173 63 37C63 34.646944 61.606062 32.603132 59.570312 31.583984C59.804488 31.286083 59.934903 31.218355 60.177734 30.796875C60.768539 29.771421 61.293917 28.362983 60.980469 26.802734C60.432904 24.078296 57.944669 22.05907 55.019531 22 A 1.0001 1.0001 0 0 0 55 22L41.521484 22C42.144632 18.491037 43.084257 10.575093 38.371094 5.2539062C37.426332 4.1858736 35.816109 2 32.955078 2 z M 32.955078 4C34.808048 4 35.809809 5.3781108 36.873047 6.5800781C41.209105 11.47551 39.879574 20.245703 39.369141 22.804688 A 1.0001 1.0001 0 0 0 40.349609 24L54.980469 24C57.007331 24.04093 58.667096 25.443704 59.019531 27.197266C59.199083 28.091017 58.892054 29.018079 58.443359 29.796875C57.994664 30.575671 57.43104 31.157266 57.298828 31.287109 A 1.0001 1.0001 0 0 0 57.78125 32.976562C59.656503 33.398294 61 35.077025 61 37C61 38.922975 59.656503 40.601706 57.78125 41.023438 A 1.0001 1.0001 0 0 0 57.398438 42.798828C58.785697 43.844683 59.34339 45.670566 58.783203 47.300781C58.23187 48.90524 56.707953 49.995994 54.998047 50 A 1.0001 1.0001 0 0 0 54.164062 51.548828C55.201347 53.131408 54.999418 54.07855 54.9375 54.386719C54.731453 55.408275 54.142972 56.229538 52.886719 56.894531C51.629734 57.559912 49.684747 58 47 58L32 58C30.009616 58 25.591807 57.96811 22.277344 55.71875C21.308729 55.061416 20.605452 54.301243 20 53.580078L20 29.816406C22.837584 29.515889 24.818027 28.616892 25.714844 27.699219C27.209049 26.169572 28.473533 23.843821 29.423828 21.486328C30.374123 19.128835 31 16.797441 31 15.0625L31 6.0742188C31.004428 5.6878791 31.113161 5.0909695 31.378906 4.6953125C31.644652 4.2996555 31.979824 4 32.955078 4 z M 5 27L17 27C17.56503 27 18 27.43497 18 28L18 28.964844L18 54L18 57C18 57.56503 17.56503 58 17 58L5 58C4.4355732 58 4 57.563541 4 57L4 28C4 27.43497 4.4349698 27 5 27 z M 7 29C6.449 29 6 29.449 6 30C6 30.551 6.449 31 7 31L9 31C9.551 31 10 30.551 10 30C10 29.449 9.551 29 9 29L7 29 z M 7 34C6.449 34 6 34.449 6 35C6 35.551 6.449 36 7 36L9 36C9.551 36 10 35.551 10 35C10 34.449 9.551 34 9 34L7 34 z M 7 39C6.449 39 6 39.449 6 40C6 40.551 6.449 41 7 41L9 41C9.551 41 10 40.551 10 40C10 39.449 9.551 39 9 39L7 39 z M 7 44C6.449 44 6 44.449 6 45C6 45.551 6.449 46 7 46L9 46C9.551 46 10 45.551 10 45C10 44.449 9.551 44 9 44L7 44 z M 7 49C6.449 49 6 49.449 6 50C6 50.551 6.449 51 7 51L9 51C9.551 51 10 50.551 10 50C10 49.449 9.551 49 9 49L7 49 z M 7 54C6.449 54 6 54.449 6 55C6 55.551 6.449 56 7 56L9 56C9.551 56 10 55.551 10 55C10 54.449 9.551 54 9 54L7 54 z" fill="#979797" />
</svg>