<svg xmlns="http://www.w3.org/2000/svg" xmlns:xlink="http://www.w3.org/1999/xlink" viewBox="0 0 50 50" fill="#979797">
  <path d="M28.875 11C28.371094 11.0625 27.996094 11.492188 28 12L28 19.0625C16.488281 19.414063 10.28125 25.507813 7.21875 31.5625C4.113281 37.699219 4.003906 43.683594 4 43.875C4 43.875 4 43.9375 4 43.9375L4 44C3.984375 44.550781 4.417969 45.015625 4.96875 45.03125C5.519531 45.046875 5.984375 44.613281 6 44.0625C6 44.0625 6 44 6 44C6.007813 43.90625 6.230469 40.878906 9.09375 37.65625C11.90625 34.496094 17.394531 31.308594 28 31.09375L28 38C28 38.382813 28.21875 38.734375 28.566406 38.902344C28.914063 39.070313 29.324219 39.023438 29.625 38.78125L45.625 25.78125C45.863281 25.589844 46 25.304688 46 25C46 24.695313 45.863281 24.410156 45.625 24.21875L29.625 11.21875C29.414063 11.046875 29.144531 10.96875 28.875 11 Z M 30 14.09375L43.40625 25L30 35.90625L30 30C30 29.449219 29.550781 29 29 29C17.246094 29 10.910156 32.613281 7.59375 36.34375C7.46875 36.484375 7.398438 36.609375 7.28125 36.75C7.703125 35.375 8.257813 33.90625 9 32.4375C11.917969 26.671875 17.488281 21 29 21C29.550781 21 30 20.550781 30 20Z" fill="#979797" />
</svg>